<?xml version="1.0" standalone="no"?>
<!DOCTYPE svg PUBLIC "-//W3C//DTD SVG 20010904//EN"
 "http://www.w3.org/TR/2001/REC-SVG-20010904/DTD/svg10.dtd">
<svg version="1.0" xmlns="http://www.w3.org/2000/svg"
 width="1024.000000pt" height="1024.000000pt" viewBox="0 0 1024.000000 1024.000000"
 preserveAspectRatio="xMidYMid meet">

<g transform="translate(0.000000,1024.000000) scale(0.100000,-0.100000)"
fill="#000000" stroke="none">
<path d="M4840 10160 c-1533 -89 -2907 -837 -3811 -2075 -481 -659 -799 -1468
-893 -2275 -112 -951 51 -1886 473 -2730 392 -784 993 -1460 1726 -1943 747
-492 1515 -761 2395 -839 74 -6 252 -11 395 -11 786 2 1482 165 2210 518 821
397 1492 983 2003 1747 441 657 719 1450 793 2258 18 195 16 668 -4 872 -77
775 -313 1468 -725 2133 -283 455 -670 890 -1107 1241 -637 513 -1453 886
-2250 1028 -382 68 -841 97 -1205 76z m700 -171 c592 -50 1162 -207 1703 -467
514 -248 928 -541 1327 -941 398 -399 676 -783 922 -1274 468 -935 596 -2039
358 -3077 -142 -619 -424 -1227 -807 -1743 -193 -259 -529 -615 -773 -818
-531 -442 -1291 -830 -1956 -998 -379 -96 -682 -137 -1074 -148 -447 -11 -850
34 -1280 143 -490 125 -1078 391 -1545 699 -299 197 -476 344 -755 624 -535
538 -921 1160 -1150 1851 -375 1135 -286 2392 246 3470 507 1028 1383 1854
2446 2306 435 185 871 300 1371 360 274 33 675 38 967 13z"/>
<path d="M4840 9890 c-627 -36 -1300 -215 -1850 -490 -757 -379 -1383 -929
-1845 -1620 -429 -642 -666 -1304 -747 -2080 -17 -164 -17 -705 0 -870 76
-734 316 -1407 726 -2035 324 -495 757 -943 1236 -1279 487 -342 1128 -640
1670 -776 729 -182 1591 -169 2333 36 473 130 1109 431 1529 724 567 395 1044
919 1397 1536 277 485 479 1097 546 1652 120 1002 -72 1962 -562 2817 -409
713 -989 1301 -1708 1733 -155 93 -468 250 -615 308 -340 134 -754 246 -1110
300 -281 42 -711 61 -1000 44z m-46 -386 c3 -9 6 -38 6 -66 l0 -50 63 4 62 3
3 -51 3 -52 -58 -7 -59 -6 8 -92 c4 -51 13 -103 18 -116 10 -21 15 -23 60 -19
l50 5 6 -36 c3 -20 6 -43 7 -50 4 -33 -137 -52 -196 -27 -64 27 -78 63 -92
247 l-6 76 -37 -1 c-36 -1 -37 0 -40 41 -3 39 -1 42 37 59 34 15 40 22 45 59
6 37 12 45 54 68 56 31 58 32 66 11z m553 -130 c68 -42 98 -105 97 -204 -1
-155 -94 -240 -250 -227 -90 7 -145 41 -180 112 -24 50 -26 63 -22 138 5 96
27 142 84 177 52 33 83 40 157 36 53 -3 77 -9 114 -32z m311 -12 c6 -9 12 -24
12 -34 0 -15 4 -15 36 7 74 50 201 26 236 -45 23 -45 22 -93 -2 -260 -11 -74
-20 -136 -20 -137 0 -10 -110 0 -126 11 -20 14 -20 15 -2 133 22 153 22 169
-2 193 -27 27 -54 25 -91 -8 -30 -26 -32 -34 -47 -157 -8 -72 -20 -133 -26
-137 -15 -10 -108 2 -123 16 -10 9 -10 36 2 131 26 219 36 290 40 302 6 18 96
5 113 -15z m-1198 -40 c58 -29 74 -65 103 -233 15 -85 27 -159 27 -166 0 -14
-54 -33 -97 -33 -41 0 -44 6 -72 164 -13 72 -28 127 -38 138 -23 25 -59 23
-88 -7 -31 -30 -32 -68 -4 -211 11 -61 17 -110 11 -116 -14 -14 -121 -33 -130
-23 -5 6 -28 104 -51 219 -31 157 -39 211 -30 217 7 4 32 10 56 14 47 7 73 -5
73 -33 0 -10 12 -3 34 21 59 65 138 84 206 49z m1673 -27 c48 -14 44 1 55
-199 l7 -138 69 121 c98 174 91 167 157 147 89 -26 88 -23 17 -122 -35 -49
-97 -138 -137 -199 -136 -203 -161 -225 -256 -225 -57 0 -125 21 -125 39 0 6
7 29 16 51 13 32 20 39 33 34 42 -19 76 -16 99 9 l23 25 -21 153 c-11 85 -28
190 -36 233 -19 105 -18 106 99 71z m827 -45 c33 -17 60 -32 60 -34 0 -6 -143
-381 -187 -491 -48 -120 -46 -118 -96 -98 -53 20 -67 31 -67 52 0 13 -12 16
-74 16 -69 0 -77 2 -107 30 -59 56 -74 132 -44 231 31 104 99 173 186 189 46
9 120 -22 144 -59 21 -32 31 -33 39 -2 8 31 77 196 82 196 3 0 31 -14 64 -30z
m-3034 -66 c49 -24 65 -51 124 -217 59 -164 59 -158 -15 -178 -36 -10 -41 -9
-59 13 -15 18 -20 20 -24 8 -10 -31 -79 -88 -117 -99 -84 -22 -166 25 -181
104 -13 73 44 145 152 191 64 27 75 39 52 62 -26 26 -92 9 -160 -41 l-27 -20
-36 27 c-19 15 -35 33 -35 40 0 24 111 95 180 117 43 13 111 10 146 -7z m-558
-219 c1 -22 12 -112 23 -200 11 -88 22 -201 26 -252 6 -86 4 -94 -20 -135 -23
-40 -103 -98 -135 -98 -11 0 -52 64 -52 81 0 5 8 12 18 16 35 12 62 46 62 77
-1 27 -14 42 -93 108 -51 43 -132 108 -182 146 -49 37 -90 75 -90 83 0 16 91
68 120 69 13 0 63 -41 131 -107 l110 -108 -22 105 c-12 58 -25 129 -29 157
l-7 52 49 25 c67 36 87 31 91 -19z m3857 -64 c81 -36 134 -129 119 -209 -7
-41 -50 -132 -62 -132 -4 0 -59 29 -122 64 -63 35 -118 62 -122 59 -5 -2 -8
-18 -8 -34 0 -57 79 -109 164 -109 22 0 27 -4 22 -16 -3 -9 -6 -31 -6 -50 0
-33 -1 -34 -40 -34 -53 0 -139 31 -185 66 -42 32 -81 94 -90 146 -14 76 56
207 133 248 49 25 143 26 197 1z m-4296 -165 c17 -29 31 -56 31 -59 0 -2 -14
-10 -30 -17 -40 -16 -60 -46 -60 -88 0 -40 7 -55 76 -158 35 -50 53 -86 49
-96 -9 -22 -79 -68 -104 -68 -13 0 -32 20 -57 63 -21 34 -73 115 -116 179 -44
65 -77 122 -74 127 4 5 26 20 50 34 l44 24 31 -24 31 -24 0 38 c0 45 20 77 64
104 17 10 32 19 33 19 1 0 15 -24 32 -54z m4574 4 c26 -17 50 -37 53 -45 5
-11 -54 -215 -83 -292 -4 -9 50 29 119 85 68 56 129 102 133 102 15 0 103 -61
109 -75 4 -10 -33 -41 -117 -98 -67 -46 -153 -105 -191 -132 l-69 -48 -43 22
c-23 13 -52 33 -64 46 l-23 24 21 83 c12 46 33 145 48 221 31 155 31 154 107
107z m-3875 -12 c30 -63 15 -102 -43 -114 -56 -11 -108 57 -77 102 26 38 103
46 120 12z m1727 -138 c94 -6 222 -17 285 -25 723 -94 1438 -441 1975 -957
318 -305 567 -650 736 -1018 104 -227 150 -350 129 -350 -5 0 -34 11 -63 24
-53 23 -54 25 -87 107 -109 274 -323 626 -532 876 -438 522 -1009 900 -1648
1092 -364 108 -681 149 -1085 138 -303 -8 -530 -43 -841 -128 -504 -138 -1004
-419 -1384 -776 -336 -317 -560 -616 -760 -1017 -68 -138 -76 -150 -151 -217
-43 -39 -79 -66 -79 -59 0 6 20 62 44 124 197 503 572 1017 1005 1375 359 296
719 494 1176 644 296 98 646 160 965 170 47 2 99 4 115 5 17 1 107 -3 200 -8z
m-2752 -116 c43 -22 117 -94 117 -115 0 -10 -43 -50 -100 -93 -54 -42 -102
-81 -106 -87 -10 -16 16 -29 59 -29 30 0 46 8 82 41 24 22 47 50 51 61 5 16
11 18 32 13 15 -3 37 -13 50 -21 21 -14 22 -16 6 -45 -26 -51 -95 -119 -146
-145 -57 -29 -143 -32 -195 -7 -109 51 -169 191 -129 298 19 47 79 109 130
131 42 18 110 17 149 -2z m5588 -110 c57 -28 58 -21 -10 -97 l-25 -27 37 -38
c20 -21 37 -42 37 -48 0 -11 -52 -64 -63 -64 -4 0 -24 16 -46 35 l-38 35 -72
-75 c-82 -86 -88 -110 -39 -148 l32 -25 -28 -37 c-33 -42 -49 -41 -114 12
-101 82 -96 163 18 268 17 17 46 47 62 68 l31 38 -23 24 c-22 23 -22 25 -6 50
24 36 42 40 81 20 33 -18 33 -18 65 8 17 15 36 27 41 27 5 0 32 -12 60 -26z
m-5872 -289 c167 -170 165 -165 101 -219 -30 -24 -33 -25 -61 -11 -29 15 -29
15 -29 -14 0 -66 -42 -125 -111 -156 -69 -31 -104 -13 -249 131 l-125 123 45
46 c24 25 49 45 55 45 6 0 53 -43 105 -95 107 -108 138 -125 174 -102 29 20
42 67 26 99 -7 13 -53 65 -103 115 l-91 93 49 50 c27 27 52 50 56 50 3 0 74
-70 158 -155z m5386 114 c43 -38 44 -52 5 -91 -36 -36 -71 -33 -108 8 -26 29
-23 55 11 92 28 30 50 28 92 -9z m629 -161 c58 -18 141 -100 156 -156 19 -73
-3 -133 -78 -205 l-39 -38 -95 100 c-101 106 -118 112 -118 42 0 -29 9 -43 50
-83 27 -26 59 -48 70 -48 11 0 20 -4 20 -9 0 -15 -29 -79 -39 -86 -18 -10
-105 42 -148 88 -59 64 -73 96 -73 170 0 99 50 166 162 217 50 23 76 24 132 8z
m-6309 -408 c116 -96 212 -175 214 -177 2 -1 -15 -25 -39 -52 -40 -49 -42 -50
-68 -36 -15 7 -54 34 -87 59 l-60 46 -5 -43 c-6 -48 -30 -85 -79 -118 -43 -30
-121 -30 -181 1 -57 29 -127 96 -152 144 -27 53 -28 130 -4 173 24 38 83 73
126 73 31 0 32 1 17 18 -10 10 -17 22 -17 26 0 3 19 27 42 52 41 44 41 44 62
26 12 -10 116 -97 231 -192z m6666 15 c63 -45 109 -117 109 -171 0 -43 0 -44
-34 -44 -19 0 -41 -3 -50 -6 -12 -4 -16 0 -16 15 0 36 -27 77 -60 91 -69 28
-170 -41 -170 -117 0 -28 8 -44 39 -74 36 -36 38 -42 30 -72 -15 -54 -22 -59
-55 -47 -41 16 -102 77 -130 132 -61 120 -11 234 134 309 57 30 149 22 203
-16z m-7374 -178 c40 -27 40 -32 8 -79 -39 -58 -60 -65 -101 -33 -42 32 -43
50 -3 104 33 46 39 47 96 8z m7779 -23 l39 -56 -29 -23 c-15 -12 -64 -44 -108
-70 l-80 -47 39 -18 c81 -36 127 -122 104 -193 -16 -47 -46 -73 -194 -167
-106 -67 -131 -79 -144 -69 -18 15 -53 83 -53 102 0 8 54 49 120 92 133 85
148 106 113 153 -38 51 -70 42 -245 -66 -37 -23 -71 -42 -75 -42 -9 0 -57 67
-66 93 -5 13 7 27 51 58 117 82 471 309 483 309 3 0 24 -25 45 -56z m-7483
-189 c237 -170 269 -214 227 -313 -36 -85 -63 -96 -118 -54 -21 16 -22 21 -11
44 26 59 15 71 -241 254 -74 52 -134 101 -132 107 2 6 19 33 39 59 23 33 39
46 47 40 6 -5 91 -67 189 -137z m2787 -879 c170 -30 277 -121 316 -268 17 -63
18 -212 3 -311 -20 -132 -64 -266 -127 -389 -2 -5 19 -8 46 -8 28 0 54 -6 60
-12 7 -9 4 -41 -9 -103 -26 -122 -33 -128 -158 -119 -67 4 -128 1 -204 -10
-210 -31 -421 -16 -529 40 -84 43 -147 123 -173 219 -27 97 -17 283 23 437 55
213 141 358 259 440 119 82 317 115 493 84z m-2325 -199 c0 -76 3 -90 38 -159
94 -191 311 -297 502 -244 28 7 59 16 70 20 14 5 11 0 -10 -18 -153 -131 -390
-116 -543 34 -73 72 -105 144 -110 252 -4 77 -2 92 21 142 14 31 27 56 29 56
2 0 3 -37 3 -83z m6198 -4 c-3 -14 -105 -157 -352 -498 -123 -169 -169 -241
-233 -370 -44 -88 -86 -163 -92 -167 -6 -4 -68 -8 -138 -8 -152 0 -148 -6 -87
132 l41 93 -20 70 c-48 171 -85 333 -79 348 5 15 23 17 131 17 142 0 139 2
151 -85 4 -27 10 -55 14 -62 5 -11 124 163 312 460 25 39 55 77 65 82 30 15
290 4 287 -12z m-6474 -54 c-16 -74 -6 -201 22 -274 83 -221 283 -375 520
-400 106 -11 247 21 333 75 25 16 46 26 46 21 0 -4 -30 -37 -68 -73 -108 -105
-217 -149 -369 -149 -173 -1 -294 50 -419 175 -45 45 -93 104 -107 132 -82
162 -75 370 16 506 17 26 33 46 34 44 2 -2 -2 -27 -8 -57z m1788 16 c1 -16 -8
-68 -20 -115 l-22 -85 -136 -3 c-108 -2 -138 0 -142 11 -7 20 40 209 55 219 7
4 69 7 138 6 l125 -3 2 -30z m2818 -46 c92 -18 177 -87 204 -168 16 -48 14
-164 -5 -262 -25 -132 10 -119 -329 -119 l-295 0 0 -35 c0 -49 18 -82 55 -100
27 -12 76 -15 258 -15 182 0 227 -3 236 -14 17 -20 -16 -173 -42 -199 -18 -18
-35 -19 -265 -15 -275 5 -317 13 -394 71 -23 18 -53 54 -67 82 -37 71 -42 229
-12 360 78 337 307 481 656 414z m-1228 -15 c3 -9 -6 -68 -20 -132 -97 -437
-102 -486 -58 -526 16 -14 38 -18 117 -17 53 1 100 3 103 7 3 3 20 74 37 157
78 381 105 502 116 514 16 20 244 18 251 -1 3 -8 -16 -113 -43 -233 -26 -120
-69 -317 -94 -438 -33 -162 -50 -223 -63 -233 -14 -11 -66 -13 -258 -9 -277 5
-324 16 -389 87 -90 99 -92 193 -12 563 31 142 58 262 61 268 4 5 60 9 126 9
100 0 121 -3 126 -16z m2275 6 c56 -16 93 -65 108 -144 7 -37 9 -70 5 -74 -3
-4 -124 -9 -268 -12 l-262 -5 -3 -25 c-2 -14 -28 -135 -57 -270 -30 -135 -59
-271 -65 -302 -17 -84 -23 -88 -144 -88 -67 0 -108 4 -120 13 -16 12 -13 32
49 327 36 173 77 371 91 440 15 69 31 131 36 138 13 15 574 17 630 2z m-5991
-92 c-33 -95 -36 -281 -7 -368 53 -157 161 -313 281 -406 71 -55 215 -126 301
-148 202 -52 443 -17 608 89 63 40 64 35 4 -37 -93 -112 -261 -206 -419 -234
-400 -70 -792 169 -896 546 -13 48 -18 99 -17 195 0 117 3 137 29 205 28 75
79 165 118 208 11 12 21 22 22 22 1 0 -10 -33 -24 -72z m2056 -144 c6 -15 -15
-107 -139 -624 -93 -387 -148 -447 -418 -458 -99 -3 -128 -2 -137 9 -8 10 -4
42 14 124 14 61 28 114 33 119 4 4 35 9 68 11 33 2 69 8 81 14 40 22 46 42
156 521 31 135 60 255 65 267 11 26 30 29 168 32 86 1 104 -2 109 -15z m5183
-764 c0 -515 -96 -913 -338 -1395 -163 -326 -351 -591 -602 -849 -485 -498
-1056 -827 -1728 -995 -306 -76 -535 -103 -877 -103 -350 1 -558 25 -864 102
-1114 280 -2029 1060 -2474 2110 -119 280 -207 632 -207 827 l0 72 45 -27 c24
-15 47 -34 49 -42 3 -8 21 -89 41 -180 70 -318 190 -640 340 -912 549 -995
1522 -1655 2650 -1798 711 -89 1453 50 2080 391 690 375 1227 957 1531 1659
147 340 218 597 297 1071 23 141 45 252 49 245 4 -6 8 -85 8 -176z m-4450
-199 c0 -26 -15 -41 -40 -41 -24 0 -27 3 -22 25 3 20 10 25 33 25 16 0 29 -4
29 -9z m-586 -38 c3 -21 6 -69 6 -108 l0 -70 48 105 c45 98 50 105 78 105 l29
0 5 -102 5 -103 45 103 c40 91 48 102 73 105 15 2 27 -2 27 -8 0 -6 -29 -73
-65 -148 -64 -135 -65 -137 -97 -137 l-33 0 -5 98 -5 99 -44 -101 c-43 -99
-44 -101 -77 -101 -29 0 -34 4 -34 23 0 12 -5 76 -10 141 -5 66 -7 123 -4 128
3 4 16 8 28 8 19 0 25 -7 30 -37z m1216 30 c0 -5 -9 -54 -20 -111 -11 -56 -20
-107 -20 -112 0 -6 27 -10 60 -10 62 0 69 -6 54 -44 -5 -13 -23 -16 -95 -16
-83 0 -89 1 -89 21 0 25 48 257 55 270 7 11 55 12 55 2z m1175 -7 c46 -19 58
-47 53 -120 -4 -71 -30 -116 -81 -143 -35 -18 -171 -31 -180 -16 -5 8 4 59 39
221 l15 72 60 0 c33 0 75 -6 94 -14z m570 -75 l21 -84 54 87 c51 80 57 87 85
84 28 -3 30 -5 27 -43 -2 -22 -13 -87 -25 -145 -20 -95 -24 -105 -46 -108 -13
-2 -27 0 -31 5 -4 4 1 44 11 87 11 43 18 81 16 83 -2 2 -21 -24 -41 -57 -29
-46 -43 -60 -61 -60 -20 0 -26 7 -35 43 -22 84 -23 84 -36 12 -22 -114 -22
-115 -49 -115 -18 0 -25 5 -25 19 0 25 48 260 56 272 3 6 18 9 32 7 24 -3 28
-10 47 -87z m-2260 39 c-6 -28 -5 -30 25 -30 25 0 31 -3 26 -16 -3 -9 -6 -20
-6 -25 0 -5 -13 -9 -29 -9 -26 0 -30 -5 -40 -44 -17 -68 -15 -76 18 -76 25 0
28 -3 23 -25 -4 -21 -10 -25 -39 -25 -19 0 -44 5 -55 11 -18 10 -20 17 -14 71
4 32 10 66 13 74 3 8 -1 14 -11 14 -10 0 -16 9 -16 25 0 18 5 25 19 25 12 0
23 9 27 23 8 26 22 37 47 37 15 0 17 -5 12 -30z m-239 -66 c-3 -8 -15 -14 -26
-14 -30 0 -53 -33 -70 -103 -13 -55 -18 -62 -40 -62 -29 0 -29 0 -4 128 15 80
18 87 40 87 16 0 24 -6 24 -17 0 -15 2 -15 18 -1 37 34 73 22 58 -18z m487 18
c51 -44 -5 -112 -93 -112 -43 0 -49 -9 -24 -35 16 -16 35 -15 78 1 24 9 33
-26 11 -42 -25 -19 -105 -18 -132 1 -24 17 -39 71 -29 109 21 84 130 129 189
78z m545 17 c34 -12 47 -37 38 -75 -8 -30 -58 -54 -111 -54 -19 0 -35 -4 -35
-9 0 -20 32 -33 72 -29 34 2 43 0 46 -14 8 -41 -101 -51 -145 -14 -24 20 -28
32 -27 71 1 54 25 92 75 117 40 21 46 21 87 7z m233 -15 c16 -20 -8 -49 -27
-33 -15 12 -66 8 -71 -6 -1 -5 14 -19 34 -30 65 -35 75 -94 22 -123 -29 -16
-112 -10 -135 9 -15 12 -14 15 7 31 15 13 25 16 33 8 14 -14 66 -13 66 3 0 6
-13 19 -29 29 -16 9 -37 28 -47 43 -16 25 -16 27 3 53 29 39 116 49 144 16z
m176 11 c29 -12 33 -18 24 -29 -8 -9 -24 -12 -50 -9 -56 8 -58 -11 -6 -47 36
-25 45 -37 45 -60 0 -59 -101 -94 -158 -54 -37 26 -12 44 49 37 61 -7 67 12
12 48 -48 32 -58 60 -32 93 17 21 29 27 72 35 4 0 24 -6 44 -14z m755 -12 c40
-35 31 -128 -16 -172 -30 -28 -98 -39 -132 -21 -46 25 -49 124 -6 174 40 45
114 54 154 19z m703 -4 c42 -40 14 -153 -45 -184 -103 -53 -185 33 -134 140
34 71 127 94 179 44z m380 17 c30 -13 35 -20 35 -49 0 -46 -28 -69 -90 -75
-40 -4 -50 -8 -48 -21 3 -12 15 -16 55 -16 40 1 53 -3 56 -16 6 -22 -31 -39
-84 -39 -139 0 -107 215 34 229 4 1 23 -6 42 -13z m-3175 -3 c0 -3 -10 -53
-22 -110 -20 -94 -23 -103 -44 -103 -13 0 -25 4 -28 9 -3 5 3 53 14 106 11 54
20 99 20 101 0 2 14 4 30 4 17 0 30 -3 30 -7z m2930 -5 c0 -9 3 -9 12 0 14 14
68 16 68 3 0 -14 -30 -41 -45 -41 -24 0 -52 -48 -64 -110 -11 -54 -15 -60 -37
-60 -19 0 -24 5 -24 24 0 24 25 158 35 184 6 15 55 16 55 0z m372 -144 c3 -3
3 -17 -1 -32 -5 -20 -15 -28 -34 -30 -25 -3 -27 0 -27 32 0 33 3 36 28 36 16
0 31 -3 34 -6z m-1847 -26 c-11 -36 -48 -87 -68 -94 -27 -8 -31 1 -13 28 9 14
13 27 10 31 -4 3 -4 18 0 32 5 21 12 25 42 25 32 0 35 -2 29 -22z"/>
<path d="M5184 9288 c-30 -14 -44 -50 -44 -114 0 -65 21 -111 54 -120 39 -9
59 -1 84 36 20 30 23 44 20 99 -4 55 -8 67 -32 87 -29 26 -49 29 -82 12z"/>
<path d="M6630 8990 c-42 -42 -63 -136 -40 -180 15 -27 65 -35 96 -15 53 34
81 146 48 193 -20 29 -76 30 -104 2z"/>
<path d="M3840 8929 c-41 -25 -50 -36 -50 -66 0 -23 26 -43 55 -43 31 0 65 46
65 90 0 47 -16 52 -70 19z"/>
<path d="M7103 8796 l-27 -24 49 -24 c28 -14 60 -29 73 -32 20 -7 22 -4 22 28
0 25 -7 40 -26 55 -35 27 -57 26 -91 -3z"/>
<path d="M2475 8368 c-29 -17 -44 -40 -45 -68 0 -54 14 -55 80 -4 l62 48 -22
18 c-25 21 -47 22 -75 6z"/>
<path d="M8273 7907 c-21 -12 -20 -13 28 -65 41 -45 52 -52 64 -42 25 21 19
76 -11 99 -30 24 -49 26 -81 8z"/>
<path d="M1712 7604 c-16 -11 -22 -25 -22 -51 0 -30 8 -44 44 -79 55 -52 98
-64 135 -37 52 39 36 97 -41 153 -46 33 -82 38 -116 14z"/>
<path d="M4147 6116 c-119 -33 -192 -137 -235 -332 -40 -186 -40 -254 2 -316
37 -57 95 -78 209 -78 115 0 152 13 197 70 47 60 76 128 104 248 18 76 27 141
27 200 1 119 -19 165 -85 199 -40 21 -161 26 -219 9z"/>
<path d="M6145 5860 c-38 -12 -89 -64 -109 -111 l-15 -36 44 -6 c24 -4 102 -4
173 0 121 6 131 7 136 27 11 42 5 66 -23 98 -27 31 -33 33 -102 35 -41 1 -88
-2 -104 -7z"/>
<path d="M5950 4819 c0 -2 -9 -46 -19 -96 l-18 -93 34 0 c19 0 43 5 54 10 42
23 64 115 36 153 -10 15 -86 37 -87 26z"/>
<path d="M4505 4730 c-24 -26 -14 -34 30 -26 26 5 35 12 35 26 0 27 -41 27
-65 0z"/>
<path d="M5077 4732 c-22 -24 -21 -32 4 -32 29 0 59 18 59 35 0 21 -43 19 -63
-3z"/>
<path d="M6220 4730 c-22 -22 -28 -94 -9 -105 19 -12 55 4 67 30 32 70 -9 124
-58 75z"/>
<path d="M6918 4733 c-39 -43 -34 -113 7 -113 34 0 57 39 53 87 -2 29 -8 39
-24 41 -11 2 -27 -5 -36 -15z"/>
<path d="M7326 4734 c-23 -22 -20 -34 8 -34 27 0 59 26 51 41 -9 14 -42 11
-59 -7z"/>
</g>
</svg>
